<?xml version="1.0" standalone="no"?>
<!DOCTYPE svg PUBLIC "-//W3C//DTD SVG 20010904//EN"
 "http://www.w3.org/TR/2001/REC-SVG-20010904/DTD/svg10.dtd">
<svg version="1.0" xmlns="http://www.w3.org/2000/svg"
 width="644.000000pt" height="644.000000pt" viewBox="0 0 644.000000 644.000000"
 preserveAspectRatio="xMidYMid meet">
<metadata>
Created by potrace 1.14, written by Peter Selinger 2001-2017
</metadata>
<g transform="translate(0.000000,644.000000) scale(0.100000,-0.100000)"
fill="#000000" stroke="none">
<path d="M1931 4869 c-15 -9 -35 -35 -45 -58 -11 -22 -23 -41 -28 -41 -4 0 -8
-6 -8 -14 0 -8 -6 -21 -12 -28 -7 -7 -23 -33 -36 -58 -25 -50 -41 -76 -113
-196 -27 -45 -49 -86 -49 -92 0 -6 -3 -12 -7 -14 -5 -1 -19 -23 -32 -48 -14
-25 -27 -47 -30 -50 -3 -3 -13 -19 -22 -35 -9 -17 -40 -70 -69 -120 -29 -49
-60 -103 -69 -120 -9 -16 -19 -31 -23 -33 -5 -2 -8 -8 -8 -12 0 -9 -118 -216
-165 -290 -32 -50 -125 -211 -125 -216 0 -3 -11 -21 -23 -42 -13 -20 -43 -71
-67 -112 -24 -41 -60 -102 -80 -135 -20 -33 -52 -87 -70 -120 -59 -106 -69
-124 -93 -162 -13 -21 -77 -130 -142 -243 -158 -274 -213 -368 -241 -412 -13
-21 -24 -40 -24 -42 0 -3 -20 -39 -45 -79 -25 -41 -45 -79 -45 -85 0 -6 -4
-12 -8 -14 -4 -1 -57 -87 -117 -191 -142 -242 -135 -229 -125 -242 10 -12 825
-12 853 0 14 6 124 84 242 172 6 5 51 35 100 68 50 33 92 63 93 68 2 4 10 7
18 7 8 0 14 5 14 11 0 5 4 8 9 4 5 -3 12 -1 15 3 5 8 114 75 224 138 164 94
421 221 608 303 166 71 484 191 510 191 8 0 22 4 32 9 18 10 141 48 179 56 40
7 45 0 231 -325 14 -25 56 -96 94 -158 37 -63 68 -115 68 -117 0 -2 52 -92
115 -200 63 -108 115 -199 115 -203 0 -4 12 -15 28 -23 23 -13 83 -15 414 -14
410 1 418 2 418 49 0 11 -28 68 -62 126 -33 58 -90 155 -125 215 -35 61 -67
117 -72 125 -88 147 -201 344 -201 351 0 5 -4 9 -9 9 -5 0 -11 8 -14 18 -4 9
-20 40 -37 67 -17 28 -33 58 -37 68 -3 9 -9 17 -14 17 -5 0 -9 6 -9 13 -1 6
-18 41 -40 77 -54 88 -52 90 140 105 41 3 91 8 110 10 41 4 201 16 280 21 49
3 476 4 524 2 17 -1 52 -48 104 -139 32 -56 238 -411 261 -449 11 -19 38 -66
60 -105 22 -38 44 -74 48 -80 5 -5 16 -25 23 -42 8 -18 18 -33 22 -33 5 0 8
-4 8 -9 0 -5 37 -71 81 -147 45 -77 93 -159 107 -184 50 -92 11 -84 454 -85
248 0 399 4 412 10 30 15 31 49 4 87 -29 42 -44 65 -63 103 -9 17 -21 39 -28
50 -7 11 -30 52 -52 90 -21 39 -61 105 -87 148 -26 43 -48 80 -48 82 0 2 -43
77 -96 167 -161 271 -190 321 -216 368 -56 100 -70 125 -78 135 -4 6 -17 26
-28 45 -11 19 -61 107 -112 195 -51 88 -106 183 -122 210 -16 28 -37 64 -47
80 -10 17 -77 131 -148 255 -72 124 -183 315 -248 425 -65 110 -128 218 -140
240 -44 77 -295 510 -305 525 -5 8 -19 31 -29 51 -37 67 -14 64 -455 64 -220
1 -411 -3 -424 -7 l-24 -8 38 -68 c20 -37 42 -76 48 -87 6 -11 14 -22 17 -25
3 -3 19 -30 36 -60 39 -71 56 -100 138 -240 37 -63 73 -124 79 -135 6 -11 21
-34 34 -52 12 -17 22 -33 22 -36 0 -3 23 -45 51 -94 29 -48 65 -113 82 -143
16 -30 36 -62 43 -71 8 -9 11 -19 7 -22 -3 -4 -1 -7 5 -7 7 0 12 -7 12 -15 0
-8 5 -15 10 -15 6 0 10 -5 10 -11 0 -6 23 -48 51 -94 60 -98 58 -113 -19 -115
-26 0 -72 -2 -102 -4 -30 -2 -98 -7 -150 -10 -52 -4 -113 -9 -135 -11 -22 -2
-71 -7 -110 -11 -38 -3 -79 -8 -90 -10 -10 -2 -37 -6 -60 -9 -71 -10 -119 -16
-150 -22 -215 -36 -214 -36 -245 23 -8 16 -32 57 -53 92 -79 131 -88 147 -94
165 -3 9 -9 17 -14 17 -5 0 -9 5 -9 11 0 6 -38 75 -83 153 -46 77 -145 247
-220 376 -74 129 -139 240 -144 245 -5 6 -17 26 -26 45 -38 76 -137 239 -151
247 -6 4 -128 8 -270 8 -220 0 -263 -2 -285 -16z m339 -1112 c0 -4 5 -13 11
-20 5 -7 37 -59 71 -117 33 -58 74 -127 91 -155 48 -80 76 -132 87 -159 8 -23
6 -28 -20 -41 -16 -9 -33 -15 -37 -15 -10 0 -160 -47 -188 -59 -11 -5 -65 -25
-120 -46 -55 -21 -113 -44 -130 -51 -16 -7 -70 -29 -118 -49 -49 -19 -117 -50
-153 -67 -35 -17 -67 -28 -71 -25 -7 8 7 41 40 94 13 21 26 43 28 48 6 16 98
169 109 182 5 7 10 19 10 28 0 8 4 15 9 15 5 0 11 8 14 18 6 17 37 72 47 82 6
6 50 86 65 117 5 13 13 23 18 23 4 0 7 4 7 10 0 8 22 47 77 135 7 11 20 34 28
50 52 101 61 106 97 52 15 -23 28 -46 28 -50z"/>
</g>
</svg>
