<?xml version="1.0" standalone="no"?>
<!DOCTYPE svg PUBLIC "-//W3C//DTD SVG 20010904//EN"
 "http://www.w3.org/TR/2001/REC-SVG-20010904/DTD/svg10.dtd">
<svg version="1.0" xmlns="http://www.w3.org/2000/svg"
 width="644.000000pt" height="644.000000pt" viewBox="0 0 644.000000 644.000000"
 preserveAspectRatio="xMidYMid meet">
<metadata>
Created by potrace 1.14, written by Peter Selinger 2001-2017
</metadata>
<g transform="translate(0.000000,644.000000) scale(0.100000,-0.100000)"
fill="#000000" stroke="none">
<path d="M1919 4862 c-16 -13 -29 -28 -29 -34 0 -5 -8 -22 -19 -36 -10 -15
-32 -52 -49 -82 -26 -47 -145 -255 -172 -300 -38 -63 -301 -514 -338 -582 -11
-20 -47 -81 -80 -135 -55 -91 -147 -249 -205 -353 -14 -25 -45 -79 -70 -120
-70 -115 -131 -225 -128 -229 1 -2 -1 -7 -6 -10 -4 -3 -13 -15 -20 -26 -78
-131 -111 -189 -136 -235 -16 -30 -35 -62 -41 -70 -6 -8 -16 -24 -22 -35 -39
-71 -112 -198 -139 -240 -18 -27 -45 -75 -62 -105 -40 -73 -63 -113 -107 -185
-20 -33 -36 -65 -36 -72 0 -6 -3 -13 -8 -15 -4 -1 -36 -52 -71 -113 -36 -60
-87 -148 -115 -195 -63 -104 -68 -116 -53 -127 15 -11 825 -9 852 2 11 5 38
23 61 39 22 17 69 52 105 78 35 27 69 52 75 57 6 5 30 21 55 36 24 15 82 53
129 84 47 31 121 78 165 104 44 26 87 52 95 57 51 30 214 117 316 168 121 61
150 74 284 132 41 18 100 44 130 57 128 59 584 213 628 213 31 0 62 -17 62
-35 0 -8 5 -15 10 -15 6 0 10 -4 10 -9 0 -9 128 -232 314 -544 10 -18 34 -60
53 -94 18 -34 48 -84 66 -111 18 -27 50 -83 71 -124 23 -45 50 -81 65 -90 22
-12 92 -14 406 -13 209 1 387 4 395 6 45 12 39 53 -20 149 -28 45 -50 83 -50
86 0 2 -29 53 -64 112 -60 102 -124 212 -274 469 -38 65 -97 166 -132 226 -34
59 -66 110 -71 113 -16 10 -10 52 9 58 9 3 46 8 82 11 36 3 76 8 90 10 14 2
61 6 105 10 44 3 112 8 150 11 39 4 198 8 355 10 218 3 289 1 300 -9 14 -11
90 -122 90 -131 0 -7 104 -188 126 -221 12 -17 47 -77 79 -135 31 -58 61 -107
65 -110 3 -3 24 -36 45 -75 39 -71 71 -127 206 -355 40 -69 82 -141 92 -161
38 -78 13 -73 445 -74 213 0 399 3 413 8 34 11 42 40 19 70 -21 26 -56 84 -69
112 -5 11 -39 72 -76 135 -38 63 -75 129 -83 145 -8 17 -23 41 -32 55 -16 22
-100 167 -152 260 -11 19 -24 40 -28 45 -5 6 -36 60 -70 120 -34 61 -77 133
-96 162 -19 28 -34 54 -34 57 0 4 -28 54 -62 112 -35 58 -76 129 -92 157 -15
29 -65 115 -111 192 -112 191 -153 260 -188 325 -16 30 -36 62 -43 71 -8 8
-14 18 -14 21 0 4 -49 90 -110 193 -61 103 -110 190 -110 193 0 3 -6 13 -14
21 -7 9 -27 41 -43 71 -15 30 -41 74 -56 98 -15 23 -38 61 -50 83 -27 50 -12
24 -197 342 -116 199 -161 269 -180 276 -31 12 -835 10 -847 -2 -4 -5 3 -27
16 -50 29 -52 118 -205 181 -312 26 -44 56 -96 67 -115 11 -19 50 -86 87 -148
37 -62 77 -130 89 -152 12 -22 47 -83 78 -137 32 -54 66 -114 77 -133 11 -19
45 -75 75 -125 62 -101 62 -119 0 -121 -47 -1 -246 -14 -293 -19 -19 -2 -69
-6 -110 -9 -41 -3 -111 -10 -155 -16 -44 -6 -100 -13 -125 -16 -25 -3 -70 -9
-100 -14 -30 -5 -73 -12 -95 -16 -22 -3 -58 -9 -80 -13 -64 -12 -46 -34 -202
234 -60 104 -172 295 -210 360 -6 11 -19 34 -28 50 -8 17 -21 39 -28 50 -6 11
-43 74 -81 140 -38 66 -77 131 -87 145 -9 14 -25 41 -35 60 -73 136 -202 344
-219 355 -15 10 -85 13 -279 12 -258 -1 -259 -1 -287 -25z m325 -1062 c14 -22
26 -42 26 -45 0 -3 12 -24 27 -48 24 -38 128 -213 176 -297 50 -88 67 -124 60
-131 -5 -4 -78 -30 -163 -59 -183 -61 -533 -201 -607 -241 -87 -48 -93 -37
-33 59 22 34 40 65 40 68 0 2 12 23 27 47 15 23 36 60 48 82 11 22 54 96 94
165 208 352 242 410 247 424 10 26 30 18 58 -24z"/>
</g>
</svg>
